<svg width="126" height="126" viewBox="0 0 126 126" fill="none" xmlns="http://www.w3.org/2000/svg">
<g filter="url(#filter0_d_38739_9075)">
<circle cx="63" cy="63" r="52" fill="#F58021"/>
<circle cx="63" cy="63" r="51.5" stroke="black"/>
</g>
<path d="M49.8579 86.5723C54.1924 85.5812 56.9328 82.7994 59.709 79.8438C59.3328 79.7395 59.0463 79.6525 58.7597 79.583C54.9446 78.6441 51.4341 77.0446 48.2101 74.8713C46.222 73.5326 44.5921 71.8461 43.3562 69.7945C43.195 69.5337 43.0697 69.2555 42.9443 68.9774C42.9085 68.9078 42.9085 68.8209 42.8726 68.5775C44.0906 68.9426 45.2369 69.2903 46.3653 69.638C46.4011 69.6033 46.419 69.5859 46.4548 69.5511C46.3295 69.4468 46.222 69.3425 46.0966 69.2555C44.6279 68.3341 43.195 67.3778 41.7084 66.5085C40.0069 65.5001 38.2158 64.6308 36.568 63.5876C34.3649 62.1793 32.8067 60.1973 31.6783 57.9023C31.6245 57.798 31.6066 57.6937 31.5887 57.5894C31.5708 57.5372 31.5887 57.4677 31.5887 57.3112C33.4156 58.0762 35.1172 59.1541 37.2307 58.9629C33.0753 56.6505 30.4962 53.4167 30.6753 48.5485C32.4485 50.4436 34.1858 52.3213 35.9232 54.199C35.959 54.1643 36.0127 54.1121 36.0486 54.0773C35.3321 52.7212 34.4903 51.3998 33.953 49.9742C33.4156 48.5485 33.0574 47.0011 32.8783 45.4885C32.6992 43.9759 32.8425 42.4285 32.8425 40.8985C32.932 40.8812 33.0216 40.8812 33.0932 40.8638C33.9351 42.7067 34.7769 44.5497 35.6187 46.41C35.7082 46.41 35.7978 46.3926 35.8874 46.3926C35.8515 43.0371 36.2277 39.751 37.8217 36.7432C37.8934 36.7432 37.965 36.7432 38.0367 36.7606C38.0367 37.5082 38.0725 38.2384 38.0367 38.9861C37.8397 42.6546 39.2904 45.7841 41.4577 48.6354C42.9085 50.5305 44.6996 52.1127 46.6339 53.5384C49.1773 55.4161 52.0251 56.7896 54.873 58.1457C57.5238 59.3975 59.8522 61.1014 62.0374 63.0139C63.3628 64.1788 64.7419 65.2741 66.1032 66.4042C66.4793 66.7171 66.8554 67.0649 67.2853 67.4474C67.9838 65.8826 68.6286 64.4222 69.2734 62.9443C70.8317 59.4323 73.178 56.4766 76.0796 53.9209C78.3901 51.8867 80.7364 49.922 83.047 47.9052C86.1814 45.1582 88.1337 41.7505 88.7606 37.6821C88.9934 36.239 88.8859 34.7264 88.9397 33.266C88.9397 33.0226 88.9397 32.7618 89.0292 32.501C90.1576 35.0046 90.48 37.6473 90.7487 40.3943C91.8592 38.2037 92.9517 36.013 94.0622 33.8049C94.1518 33.8223 94.2413 33.8397 94.313 33.8571C94.1876 36.0999 94.1697 38.3428 93.901 40.5682C93.6323 42.7763 93.1129 44.9495 92.701 47.0533C93.2562 46.2187 93.901 45.2625 94.6533 44.1672C94.707 46.3057 94.6354 48.2355 93.704 50.0611C92.7905 51.8693 91.3218 53.2254 89.7277 54.5641C90.6054 54.738 91.3039 54.4424 91.9845 54.1121C92.6472 53.7991 93.2562 53.4167 94.0264 52.982C93.9547 53.3123 93.9189 53.5384 93.8473 53.747C92.8801 56.2854 91.3756 58.4761 89.1188 60.093C87.7396 61.1014 86.2709 61.9881 84.9097 62.9965C84.05 63.6398 83.441 64.0397 83.4052 64.9264C83.9783 64.7351 84.5336 64.5612 85.1963 64.3526C84.0858 68.0385 81.1484 70.2987 78.5871 72.9414C78.8379 73.0457 79.0349 73.1153 79.2319 73.2022C80.5036 73.7064 81.5783 74.4714 82.3126 75.6189C82.8678 76.4708 82.9932 77.3749 82.7604 78.3659C82.6887 78.6615 82.8678 79.0614 83.0649 79.3222C83.6738 80.2263 83.7634 81.1477 83.2261 82.0866C82.7066 83.0081 81.8469 83.4601 80.7185 83.5297C81.6141 81.9649 81.5783 81.6172 80.3603 80.7826C80.2349 81.4259 80.1096 82.0344 79.9842 82.6777C79.1782 82.0344 78.4797 81.2694 77.602 80.8174C76.7065 80.3654 75.6497 80.2437 74.5751 79.9481C74.6288 80.1741 74.6288 80.3132 74.6825 80.4349C75.4706 82.3648 76.205 84.3294 77.1005 86.2245C77.4229 86.92 78.0677 87.5111 78.6588 88.0327C79.214 88.5195 79.6081 88.3457 79.823 87.6328C79.9663 87.1286 80.02 86.607 80.1096 86.1028C80.1991 85.6508 80.4499 85.4595 80.7723 85.5986C80.8439 86.0159 80.9335 86.3462 80.9514 86.6766C80.9693 87.0243 80.9693 87.3894 80.8976 87.7198C80.826 88.0153 80.629 88.2935 80.4857 88.5717C80.5215 88.6238 80.5752 88.6586 80.6111 88.7108C81.0947 88.3978 81.5962 88.0849 82.0619 87.7545C82.2947 87.5807 82.4738 87.3546 82.6887 87.1634C83.5306 86.4158 83.9425 86.4679 84.5336 87.459C84.2112 87.4242 83.9246 87.372 83.6201 87.3373C83.5664 88.6238 82.1693 88.6065 81.5962 89.4758C82.2768 89.441 82.8858 89.3888 83.4947 89.3888C84.4261 89.3888 84.8022 89.8061 84.6231 90.7276C84.3545 90.1017 83.9067 90.1886 83.4768 90.3625C82.5634 90.7276 81.632 90.6059 80.7006 90.4842C79.6797 90.3451 78.7662 90.4842 77.8886 91.0753C77.3154 91.4752 76.7244 91.8577 75.9005 91.6838C75.7214 91.649 75.399 92.2228 75.1661 92.501C74.79 92.0142 74.8079 91.5447 75.4348 91.1622C75.8288 90.9188 76.2945 90.7971 76.7244 90.6233C76.993 90.5189 77.2796 90.432 77.5125 90.2581C78.0319 89.8756 78.0319 89.6322 77.5304 89.2497C76.2945 88.2761 75.0587 87.3199 73.8228 86.3462C73.7153 86.2593 73.59 86.1898 73.4825 86.1724C71.8526 86.0333 70.957 84.9901 70.2764 83.7209C70.1331 83.4427 70.0257 83.0602 69.6316 83.3036C69.4167 83.4427 69.1839 83.86 69.2555 84.0686C69.6316 85.4422 70.4555 86.5201 71.7272 87.2155C72.2825 87.1286 72.3899 85.8073 73.178 86.607C73.1064 86.9026 73.0526 87.0765 73.0168 87.2503C73.2317 87.2851 73.4646 87.372 73.6795 87.3546C74.0377 87.3546 74.396 87.2851 74.7542 87.2503C74.7721 87.3199 74.79 87.4068 74.8079 87.4763C74.5572 87.598 74.3064 87.7198 73.9661 87.8936C75.6855 87.9805 75.6855 87.9805 75.7572 88.8672C75.2019 88.3457 74.6646 88.7629 74.1273 88.8325C72.9093 88.9716 72.0675 89.5279 71.6198 90.6928C71.4765 91.0579 71.0824 91.3187 70.7242 91.7186C70.7421 91.7708 70.7958 91.9446 70.8317 92.1359C70.0615 91.8751 69.8824 91.51 70.2585 90.8493C70.5451 90.3451 70.9212 89.8756 71.2615 89.3888C71.566 88.9542 71.566 88.5891 70.9929 88.3457C70.0615 87.9458 69.2734 87.3025 68.1808 87.1982C67.7689 87.1634 67.4107 86.6244 66.9987 86.2767C66.8017 86.5896 66.533 86.9548 66.3181 87.372C65.6912 88.6065 64.6345 89.3541 63.3091 89.7018C59.1358 90.8145 55.1954 90.1886 51.5236 87.9805C50.9147 87.6328 50.4669 87.0938 49.8579 86.5723Z" fill="#20113D"/>
<defs>
<filter id="filter0_d_38739_9075" x="7" y="11" width="112" height="112" filterUnits="userSpaceOnUse" color-interpolation-filters="sRGB">
<feFlood flood-opacity="0" result="BackgroundImageFix"/>
<feColorMatrix in="SourceAlpha" type="matrix" values="0 0 0 0 0 0 0 0 0 0 0 0 0 0 0 0 0 0 127 0" result="hardAlpha"/>
<feOffset dy="4"/>
<feGaussianBlur stdDeviation="2"/>
<feColorMatrix type="matrix" values="0 0 0 0 0 0 0 0 0 0 0 0 0 0 0 0 0 0 0.25 0"/>
<feBlend mode="normal" in2="BackgroundImageFix" result="effect1_dropShadow_38739_9075"/>
<feBlend mode="normal" in="SourceGraphic" in2="effect1_dropShadow_38739_9075" result="shape"/>
</filter>
</defs>
</svg>
