<svg width="126" height="126" viewBox="0 0 126 126" fill="none" xmlns="http://www.w3.org/2000/svg">
<g filter="url(#filter0_d_38740_9076)">
<circle cx="63" cy="58" r="52" fill="#F58021"/>
</g>
<path fill-rule="evenodd" clip-rule="evenodd" d="M76.1978 52.9514C76.8218 54.2855 77.4457 55.6197 78.0924 57.0129C77.929 57.1468 77.7636 57.2851 77.5956 57.4254L77.5948 57.4261L77.5947 57.4261C77.2148 57.7436 76.8222 58.0716 76.4133 58.3825C75.959 58.7261 75.5085 59.0745 75.0582 59.4227L75.0576 59.4233L75.0575 59.4233C73.945 60.2838 72.8339 61.1431 71.671 61.9246C67.4847 64.7465 62.8672 65.8918 57.898 65.4431C56.6841 65.3368 55.4021 64.9 54.8916 64.534C55.1864 62.41 55.4698 60.3449 55.7533 58.2799L55.7538 58.2763C55.7198 58.2645 55.6829 58.2556 55.646 58.2468C55.6091 58.2379 55.5723 58.2291 55.5382 58.2173C55.4278 58.4505 55.3182 58.6838 55.2088 58.9169L55.2085 58.9176C54.936 59.4981 54.6643 60.0768 54.381 60.6495C53.6453 62.1624 53.152 63.769 52.6575 65.3792C52.5192 65.8298 52.3807 66.2808 52.2368 66.73C51.3292 69.5283 49.7068 71.6772 46.95 72.728C46.8138 72.787 46.7004 73.0231 46.6436 73.2002C46.5325 73.5673 46.4337 73.9387 46.335 74.3098L46.3349 74.3101C46.2019 74.8102 46.069 75.3098 45.9062 75.7978C45.2822 77.6869 44.1137 79.1509 42.5367 80.2726C41.8333 80.7685 41.1299 81.2762 40.4605 81.8193C39.8819 82.2798 39.9046 82.4805 40.4719 82.941C40.5828 83.0311 40.6944 83.1199 40.8057 83.2084L40.8058 83.2085L40.8058 83.2085C41.1612 83.4912 41.5137 83.7716 41.8333 84.0862C42.3552 84.6057 42.5934 85.2669 42.4005 86.0226C42.3552 86.1997 42.0942 86.4358 41.9354 86.4358C38.2142 86.4594 34.4816 86.4594 30.7604 86.4476C30.6243 86.4476 30.4314 86.4004 30.352 86.3059C30.238 86.1616 30.1214 86.0178 30.0044 85.8736L30.0042 85.8733L30.0042 85.8733C29.5854 85.3571 29.1623 84.8354 28.8431 84.2633C28.6389 83.8973 28.6162 83.2834 28.7523 82.8701C30.0684 78.7023 31.7588 74.747 34.9468 71.7126C35.0829 71.5827 35.1623 71.2993 35.1737 71.0986C35.2531 68.0997 35.5934 65.1243 36.3309 62.2316C36.9662 59.7285 37.6469 57.2255 38.8495 54.9231C41.0618 50.7199 43.9208 47.2132 48.3114 45.3241C52.0893 43.7065 55.7765 43.9545 59.3729 45.8672C59.8666 46.1321 60.3131 46.4954 60.7481 46.8492C60.9528 47.0157 61.155 47.1801 61.3583 47.3313C60.9499 46.4103 60.2351 45.6547 59.4637 44.9581C60.1901 44.6705 60.9193 44.3921 61.6472 44.1143L61.6474 44.1142C64.8639 42.8863 68.0552 41.6681 70.8769 39.704C71.0011 40.1539 71.1232 40.6083 71.2459 41.0653L71.2459 41.0654C71.4034 41.6518 71.562 42.2423 71.7278 42.8328C71.7732 42.9745 71.8639 43.1044 71.9774 43.2225C71.7505 41.7584 71.7505 40.2943 72.2837 38.9483C72.7829 37.6732 73.3842 36.3862 74.1556 35.2764C76.0503 32.5844 78.3307 30.2466 80.872 28.204L80.872 28.204L80.872 28.204C80.9741 28.1214 81.0762 28.0387 81.1896 27.9561C81.3718 27.8351 81.5524 27.7061 81.7333 27.5769C82.6114 26.9497 83.4984 26.3161 84.6272 26.5511C86.4878 26.9289 88.0421 27.9443 89.1086 29.6091C89.4149 30.0813 89.7666 30.4119 90.2544 30.589C91.5251 31.0495 92.4781 31.8406 93.0907 33.1275C93.3128 33.5977 93.6331 34.0142 93.9539 34.4313C94.1084 34.6321 94.263 34.833 94.4068 35.0402C94.7017 35.4653 94.7585 35.8195 94.4294 36.3154C94.1572 36.7286 94.021 37.2836 93.9416 37.7913C93.8395 38.3934 94.0664 38.783 94.679 39.1136C96.2787 39.9637 97.209 41.8647 96.3241 43.7892C96.1766 44.108 96.0405 44.4268 95.9157 44.7574C95.3257 46.3395 94.2025 46.8944 92.6596 46.3395C92.6341 46.3306 92.6078 46.3218 92.5816 46.3129L92.5815 46.3129C92.5028 46.2863 92.4242 46.2598 92.3646 46.2332C92.081 46.6465 91.7974 47.0479 91.491 47.473C91.4475 47.4176 91.4102 47.3772 91.3817 47.3464C91.3433 47.305 91.3209 47.2807 91.3209 47.2604C91.4116 46.245 90.8217 45.6429 90.1637 45.0289C87.0891 42.148 83.3225 42.6675 80.7472 44.3323C81.0367 44.2712 81.3236 44.2045 81.6096 44.138L81.6096 44.138C82.1529 44.0117 82.6931 43.8861 83.2431 43.801C86.5105 43.3287 89.3468 44.8518 90.8557 47.898C91.8995 49.9996 92.6369 52.1957 92.4554 54.6279L92.4534 54.6564V54.6565C92.4199 55.1328 92.3835 55.6517 92.1944 56.0684C91.5364 57.5325 91.7406 59.0083 92.1037 60.4606L92.1706 60.7312C92.5112 62.111 92.861 63.5276 93.5105 64.7465C96.0178 69.4338 96.222 74.499 96.0405 79.635C95.961 81.8429 95.2803 83.8029 93.5332 85.2315C92.5575 86.0344 91.5137 86.5893 90.209 86.483C89.6077 86.4358 88.9951 86.424 88.3938 86.483C87.2593 86.6129 86.4765 86.0226 85.8071 85.1961C85.081 84.3106 84.752 83.2834 84.9562 82.1263C85.013 81.8193 85.2285 81.4415 85.4781 81.2998C85.7916 81.1265 86.0205 81.367 86.2525 81.6107C86.2892 81.6492 86.3259 81.6878 86.363 81.7248C86.7127 82.077 87.1745 82.3358 87.6147 82.5825L87.6147 82.5825L87.6223 82.5868C88.0081 82.7993 88.2123 82.6222 88.2577 82.1735C88.3031 81.6422 88.1442 81.1935 87.7585 80.8511C85.5916 78.9266 84.2301 76.4117 83.0049 73.8024C82.0632 71.7834 81.4619 69.67 81.2464 67.4267C81.0875 65.7383 81.3712 64.0971 81.6775 62.4559C81.825 61.7121 81.9725 60.9565 82.0178 60.189C82.1199 58.6659 81.6094 57.379 80.3501 56.5643C78.7958 55.5607 77.4117 54.3564 76.2999 52.8451C76.3112 52.8805 76.2545 52.9159 76.1978 52.9514ZM79.5212 58.3137C80.1793 58.8686 80.4175 59.5062 80.2814 60.2973C80.1975 60.8087 80.1051 61.3187 80.0128 61.8287L80.0126 61.8294L80.0126 61.8295C79.8428 62.7675 79.6728 63.7058 79.5553 64.654C79.1695 67.8537 79.8843 70.8763 81.0755 73.7926C81.2911 74.3239 81.3138 74.749 81.0869 75.2803C80.0545 77.7125 78.9313 80.0857 77.4791 82.2936C75.5958 85.1509 72.9637 86.4732 69.6737 86.4732C69.4792 86.4732 69.2858 86.4764 69.0929 86.4796H69.0928C68.6439 86.4871 68.1972 86.4945 67.745 86.4614C67.5181 86.4496 67.2344 86.2961 67.1096 86.1072C66.0546 84.6196 66.2361 81.538 67.45 80.1802C67.5861 80.0267 67.8925 79.885 68.0626 79.944C68.192 79.9921 68.2837 80.1968 68.3685 80.3859C68.3878 80.429 68.4067 80.4713 68.4257 80.5107C68.4725 80.6082 68.5065 80.7155 68.5404 80.8223C68.5968 81.0002 68.6526 81.1764 68.766 81.3018C68.9703 81.5498 69.322 81.904 69.5489 81.8567C69.7871 81.8095 70.0254 81.3727 70.1275 81.0657C70.2296 80.7705 70.1955 80.4045 70.1388 80.0975C70.0566 79.6652 69.9534 79.2361 69.8505 78.8078L69.8505 78.8077C69.6695 78.0545 69.4892 77.3038 69.4241 76.5436C69.1177 73.1314 69.4127 69.7783 70.8309 66.6258C71.1599 65.9056 71.5343 65.1735 72.0221 64.5596C72.5326 63.8984 73.168 63.3199 73.8146 62.8004C74.4782 62.2577 75.162 61.7446 75.8467 61.2307L75.8468 61.2307L75.8471 61.2304C76.3095 60.8834 76.7723 60.5361 77.2295 60.1792C77.7396 59.7751 78.2446 59.3604 78.7581 58.9387C79.0099 58.7319 79.2637 58.5235 79.5212 58.3137ZM55.1375 66.7059C54.8462 66.6162 54.5535 66.5261 54.2553 66.4348C54.1543 66.6627 54.0563 66.8939 53.958 67.1258C53.7915 67.5188 53.624 67.9142 53.4385 68.3003C52.3153 70.6617 50.8404 72.7161 48.56 74.0385C48.3785 74.1447 48.2537 74.4163 48.1857 74.6406C47.6411 76.5415 46.9604 78.3598 45.7011 79.8947C45.6103 80.0128 45.5309 80.2253 45.5649 80.3552C45.962 81.6658 46.3704 82.9763 46.8129 84.2633C46.8923 84.4876 47.1306 84.7001 47.3461 84.83C48.1516 85.3023 48.9571 85.7628 49.7853 86.1996C50.0576 86.3413 50.3753 86.4712 50.6702 86.4712C53.0693 86.4889 55.4619 86.4867 57.8577 86.4845C58.657 86.4837 59.4566 86.483 60.2569 86.483H60.9603C60.884 86.3202 60.8218 86.1614 60.763 86.0111C60.6468 85.7145 60.5436 85.451 60.3704 85.2551C59.9392 84.771 59.4514 84.3105 58.9295 83.9445C58.4394 83.6014 57.9074 83.3165 57.3773 83.0327C57.2324 82.9552 57.0878 82.8778 56.9441 82.7992C56.3769 82.4804 56.1273 82.0082 56.1727 81.347C56.1802 81.1895 56.1979 81.0321 56.2155 80.8747C56.2243 80.796 56.2332 80.7173 56.2407 80.6385C56.2754 80.2811 56.3186 79.9225 56.3618 79.5635C56.46 78.7486 56.5584 77.9315 56.5584 77.1201C56.5584 75.4317 55.8323 73.9794 54.7999 72.7043C56.5924 71.3111 56.9441 69.3393 57.1143 67.3085C56.4324 67.1046 55.7885 66.9063 55.1375 66.7059Z" fill="#20113D"/>
<defs>
<filter id="filter0_d_38740_9076" x="7" y="6" width="112" height="112" filterUnits="userSpaceOnUse" color-interpolation-filters="sRGB">
<feFlood flood-opacity="0" result="BackgroundImageFix"/>
<feColorMatrix in="SourceAlpha" type="matrix" values="0 0 0 0 0 0 0 0 0 0 0 0 0 0 0 0 0 0 127 0" result="hardAlpha"/>
<feOffset dy="4"/>
<feGaussianBlur stdDeviation="2"/>
<feColorMatrix type="matrix" values="0 0 0 0 0 0 0 0 0 0 0 0 0 0 0 0 0 0 0.25 0"/>
<feBlend mode="normal" in2="BackgroundImageFix" result="effect1_dropShadow_38740_9076"/>
<feBlend mode="normal" in="SourceGraphic" in2="effect1_dropShadow_38740_9076" result="shape"/>
</filter>
</defs>
</svg>
