<svg width="126" height="126" viewBox="0 0 126 126" fill="none" xmlns="http://www.w3.org/2000/svg">
<g filter="url(#filter0_d_38740_9077)">
<circle cx="63" cy="63" r="52" fill="#F58021"/>
</g>
<path fill-rule="evenodd" clip-rule="evenodd" d="M62.059 33.5096C63.0001 33.4569 63.8976 33.6501 64.8213 33.9749C64.7908 34.062 64.7625 34.1476 64.7347 34.2318L64.7347 34.2318C64.6672 34.4359 64.6027 34.6313 64.5163 34.8178C64.2505 35.3929 63.9804 35.9681 63.7103 36.5432C63.4401 37.1183 63.17 37.6934 62.9042 38.2685L62.9035 38.2701C62.7604 38.5803 62.6907 38.7314 62.5735 38.795C62.4623 38.8555 62.3084 38.8372 62.0083 38.8016L61.9544 38.7953C61.6494 38.7602 61.4664 38.6285 61.4229 38.3299C61.4044 38.2042 61.381 38.0779 61.3576 37.9514L61.3576 37.9514L61.3576 37.9513L61.3576 37.9513L61.3576 37.9513L61.3575 37.9512L61.3575 37.9512L61.3575 37.9512L61.3575 37.9511L61.3575 37.9511L61.3575 37.9511C61.2927 37.6007 61.2276 37.2494 61.266 36.9075C61.3622 36.0629 61.518 35.2237 61.6736 34.3856L61.6736 34.3856L61.6736 34.3855L61.6736 34.3854L61.6736 34.3853L61.6737 34.3852L61.6737 34.3851L61.6737 34.3851L61.6737 34.385L61.6737 34.385L61.6737 34.3849L61.6737 34.3849C61.7154 34.1604 61.7571 33.936 61.7976 33.7115C61.815 33.6325 61.9631 33.5184 62.059 33.5096ZM56.1868 36.3552L56.187 36.3555L56.187 36.3555L56.1871 36.3556C56.7648 37.2214 57.3301 38.0685 57.9201 38.9008C58.138 39.2168 58.4342 39.4978 58.9135 39.3046C59.6455 39.0237 59.8285 38.8305 59.6106 38.0579C59.3499 37.1187 59.5117 36.2156 59.6741 35.3093L59.6741 35.3093C59.6908 35.2158 59.7076 35.1223 59.7239 35.0287C59.7849 34.695 59.7762 34.3263 59.6977 33.9926C59.6629 33.8346 59.3492 33.5975 59.2272 33.6238C57.894 33.9575 56.7263 34.616 55.6109 35.494C55.8051 35.7832 55.9966 36.0702 56.1868 36.3552ZM52.764 43.0505C53.3745 43.4996 53.9867 43.95 54.6099 44.4059C54.4007 45.4157 53.8605 45.9864 52.8061 46.1005C51.3509 46.2498 50.1222 45.6527 49.0155 44.7572C48.9545 44.7045 48.9284 44.5113 48.972 44.4235C49.0359 44.2801 49.0996 44.1364 49.1633 43.9926L49.1639 43.9912L49.1647 43.9894L49.165 43.9889L49.1657 43.9873L49.1657 43.9872L49.1657 43.9872L49.1657 43.9872L49.1657 43.9871L49.1658 43.9871L49.1658 43.9871L49.1658 43.987L49.1658 43.987L49.1658 43.987L49.1658 43.9869L49.1659 43.9869L49.1659 43.9869L49.1659 43.9868L49.1659 43.9868C49.4485 43.349 49.7317 42.7098 50.0438 42.088C50.1276 41.9131 50.2648 41.7671 50.3962 41.6275L50.3963 41.6274C50.4561 41.5638 50.5148 41.5014 50.5666 41.4382C51.306 41.9779 52.0326 42.5124 52.7616 43.0488L52.7631 43.0499L52.7634 43.0501L52.764 43.0505ZM53.1536 48.4169C51.5067 48.0043 49.912 47.6004 48.1954 47.1614C48.1586 47.3652 48.1175 47.5755 48.0756 47.7904L48.0756 47.7905C47.9981 48.1867 47.9177 48.5985 47.8556 49.014C47.7959 49.4075 47.7565 49.8044 47.7163 50.2089V50.2089C47.692 50.4543 47.6673 50.7025 47.6377 50.9544C49.0145 51.6481 50.4262 51.8412 51.8204 51.0335C52.8138 50.4715 53.2059 49.5408 53.1536 48.4169ZM47.6987 53.0716C47.4372 54.4589 47.6464 55.7671 48.1344 57.0403C48.1779 57.1456 48.2912 57.2598 48.3958 57.2949C50.4523 57.9885 52.7702 56.6013 53.0926 54.7311C53.1361 54.4764 53.1536 54.2043 53.1361 53.9496C53.0316 52.8345 52.8224 52.6765 51.7419 52.8345L51.4306 52.8801C50.689 52.9889 49.9466 53.0978 49.1975 53.1594C48.8684 53.1835 48.5311 53.1497 48.1828 53.1147C48.0238 53.0988 47.8625 53.0826 47.6987 53.0716ZM53.5545 61.3061C54.2516 59.8134 54.0337 58.7422 52.8574 57.8115C51.6374 58.7422 50.2258 59.0847 48.7095 59.1373C48.605 59.1373 48.4307 59.2866 48.4046 59.4007C48.1693 60.5158 48.5004 61.508 49.1191 62.4211C49.1686 62.4932 49.2634 62.5303 49.3703 62.5722C49.4327 62.5966 49.4993 62.6226 49.5635 62.6582C49.5333 62.6785 49.5039 62.6987 49.4748 62.7188L49.4747 62.7188C49.4029 62.7683 49.3329 62.8164 49.2585 62.8601C47.6726 63.8172 46.3916 65.0728 45.6335 66.7849C44.6401 69.0414 44.2829 71.3682 45.1804 73.7652C45.3419 74.1961 45.4905 74.6348 45.6389 75.0727L45.6389 75.0729L45.639 75.073L45.639 75.0732L45.6391 75.0733L45.6391 75.0734L45.6392 75.0736L45.6392 75.0737L45.6393 75.0738L45.6393 75.074L45.6393 75.0741L45.6394 75.0742L45.6394 75.0744L45.6395 75.0745L45.6395 75.0747L45.6396 75.0748L45.6396 75.0749L45.6397 75.0751C45.7631 75.4396 45.8864 75.8036 46.0169 76.1622C46.4526 77.3739 46.4875 78.6206 46.1389 79.8323C45.1107 83.3707 46.0779 86.6194 47.446 89.8242C47.5661 90.0921 47.7621 90.3344 47.951 90.568L47.9601 90.5793C48.2216 90.9042 48.5614 91.0095 48.971 90.8691C49.3805 90.7198 49.6768 90.4476 49.6594 90.0174C49.6419 89.4642 49.5722 88.9111 49.4415 88.3755C49.3413 87.9496 49.2193 87.5282 49.0973 87.1067C48.9753 86.6853 48.8533 86.2638 48.7531 85.838C48.4743 84.6351 48.8315 83.6429 49.8075 82.8966C49.8491 82.8659 49.8899 82.8342 49.9303 82.8028L49.9304 82.8027L49.9305 82.8027L49.9306 82.8026L49.9307 82.8025L49.9307 82.8025L49.9308 82.8024L49.9308 82.8024L49.9309 82.8023L49.9311 82.8022C50.0173 82.7352 50.1021 82.6693 50.1909 82.6156C51.6636 81.764 52.5698 80.4294 53.3192 78.9455C53.5285 78.5238 53.7993 78.131 54.0697 77.7388L54.0697 77.7387C54.1934 77.5594 54.317 77.3801 54.4346 77.1982L54.5391 77.2509C54.5914 77.4968 54.6448 77.7426 54.6982 77.9884L54.6982 77.9886C54.8583 78.7261 55.0184 79.4636 55.1491 80.2011C55.7329 83.4059 57.6152 85.8204 59.7936 88.0682C60.0085 88.2933 60.2912 88.4587 60.5581 88.6148L60.5692 88.6213C60.9352 88.8408 61.3099 88.8408 61.6584 88.5511C62.0157 88.2525 62.1464 87.875 61.9895 87.4535C61.8327 87.0497 61.6323 86.6545 61.3883 86.2946C61.1352 85.9263 60.862 85.5732 60.589 85.2204C60.3543 84.9171 60.1197 84.614 59.8982 84.3014C58.8612 82.8439 58.8177 81.8166 59.8372 80.3591C60.6476 79.1914 61.2053 77.9182 61.702 76.5397C61.8406 76.6047 61.9769 76.6649 62.1103 76.7238L62.1105 76.7239L62.1106 76.7239L62.1107 76.724L62.1108 76.724L62.111 76.7241C62.3379 76.8243 62.5567 76.9209 62.7651 77.0314C64.9087 78.208 66.2245 80.0606 67.0088 82.3347C67.3273 83.2417 67.6018 84.1653 67.876 85.0879L67.876 85.0881L67.8762 85.0887C67.947 85.3269 68.0178 85.5651 68.0893 85.8029C68.342 86.6458 68.7515 87.3921 69.3092 88.0594C69.522 88.3123 69.7345 88.5653 69.9469 88.8182L69.947 88.8182L69.947 88.8182L69.947 88.8182C70.9438 90.0048 71.9388 91.1892 72.9516 92.3617C73.2392 92.6953 73.5878 93.0114 73.9625 93.2485C74.6421 93.6787 75.3044 93.547 75.9318 92.9412C76.3849 92.5022 76.4633 91.9578 76.0538 91.2642C75.8189 90.8647 75.5159 90.5026 75.2178 90.1464L75.2178 90.1463L75.2177 90.1463L75.2176 90.1462L75.2172 90.1457C75.1617 90.0794 75.1064 90.0133 75.0517 89.9471C74.8774 89.7364 74.677 89.5345 74.4679 89.3589C72.6989 87.8399 72.2632 85.8292 72.3417 83.6254C72.3543 83.2553 72.3992 82.8853 72.4428 82.5254L72.4429 82.5253C72.4593 82.3899 72.4755 82.2559 72.4898 82.124C72.7624 82.0715 73.0318 82.019 73.2953 81.9677L73.2969 81.9674C73.7824 81.8728 74.248 81.7821 74.677 81.7025C74.8395 82.0632 74.9915 82.4319 75.1438 82.8012C75.4735 83.6004 75.8045 84.4029 76.2455 85.1356C76.8942 86.2156 77.6628 87.2208 78.4312 88.2258L78.4316 88.2263L78.4317 88.2265L78.4317 88.2265C78.6127 88.4632 78.7936 88.6998 78.973 88.9374C79.2779 89.3413 79.6875 89.6662 80.2452 89.5345C80.5415 89.4642 80.768 88.6564 80.6199 88.0857C80.4805 87.5501 80.3149 87.0058 80.0448 86.5316C78.8422 84.398 78.3804 82.0537 78.058 79.6743C77.8924 78.4626 77.1779 77.9182 75.9754 78.1553C73.7272 78.6031 71.4703 78.8226 69.1785 78.6206C69.0217 78.6031 68.8649 78.568 68.7081 78.5329L68.708 78.5328C67.0872 78.1465 66.4423 76.6363 67.2789 75.17C67.305 75.1173 67.3312 75.0647 67.3747 75.0208C68.1538 74.2293 68.576 73.2461 69 72.2589C69.1499 71.91 69.3 71.5606 69.4661 71.2189C69.7972 70.5516 70.4246 69.9897 71.0259 69.498C71.7665 68.9009 72.6728 68.6024 73.6052 68.4005C73.7359 68.3741 73.9276 68.2512 73.9537 68.1458C73.9799 68.0229 73.8753 67.7946 73.7707 67.742C73.7042 67.7103 73.6373 67.6778 73.57 67.6451C73.1704 67.4507 72.7581 67.2502 72.333 67.1976C71.6358 67.1098 70.9126 67.1273 70.2068 67.1976C69.4225 67.2766 68.7254 67.0308 68.0718 66.7147C67.3747 66.381 66.7125 65.9244 66.0851 65.4679C64.3684 64.2123 62.6344 62.9919 60.665 62.1577C58.5563 61.2534 56.3691 60.9548 54.1034 61.2885C53.9379 61.2709 53.7549 61.2797 53.5545 61.3061ZM63.1129 59.616C62.4158 60.055 61.6576 60.2482 60.8385 60.2482C60.0543 60.2219 59.3049 60.0638 58.6688 59.5721C57.9629 59.0365 57.6928 58.2463 58.1024 57.4824C58.3638 57.0017 58.7281 56.5803 59.0925 56.1588L59.0926 56.1587L59.0927 56.1586L59.0928 56.1584L59.093 56.1583L59.0931 56.1581L59.0932 56.158L59.0933 56.1578L59.0934 56.1577L59.0936 56.1576L59.0937 56.1574L59.0938 56.1573L59.0939 56.1571L59.0939 56.1571L59.094 56.1571L59.094 56.1571L59.094 56.1571C59.2149 56.0172 59.3359 55.8773 59.453 55.7352C59.514 55.6649 59.6622 55.6386 59.7667 55.6474C61.6576 55.8318 63.1216 57.14 63.4614 58.7907C63.5486 59.1946 63.4353 59.4141 63.1129 59.616ZM53.6499 37.032C54.6433 37.7871 56.0375 39.508 56.9873 41.1323L56.8893 41.2573L56.8893 41.2573L56.8893 41.2573L56.8891 41.2575L56.889 41.2576L56.8889 41.2578C56.6643 41.544 56.4521 41.8144 56.2466 42.0982C56.0636 42.3528 55.8458 42.4143 55.5321 42.3177C53.92 41.7996 52.8133 40.6407 51.6457 39.3939C52.3247 38.5956 52.9864 37.8149 53.648 37.0342L53.6484 37.0337L53.6499 37.032ZM67.2437 42.4238C67.9618 41.8006 68.8364 41.6917 69.7162 41.5821L69.7162 41.5821L69.7163 41.5821L69.7163 41.5821L69.7164 41.5821L69.7164 41.5821L69.7165 41.5821L69.7165 41.5821L69.7165 41.5821L69.7166 41.5821L69.7166 41.5821L69.7167 41.5821C69.9151 41.5573 70.1138 41.5326 70.311 41.5019C70.7642 41.4317 71.2173 41.2999 71.653 41.1595C71.7488 41.1243 71.8883 40.9487 71.8708 40.8609C71.7401 39.9917 71.47 39.1751 70.7467 38.6132C70.6247 38.5166 70.4243 38.4552 70.2849 38.4727C69.2218 38.6395 68.2371 39.0083 67.357 39.6317C67.2524 39.7107 67.1479 39.7897 67.052 39.8776C66.1458 40.7205 66.2068 41.6775 67.2437 42.4238ZM67.584 56.8298C66.7039 55.2494 62.8698 53.7392 61.8764 54.5909C61.8764 54.6172 61.8764 54.6611 61.8938 54.6699C63.0789 55.706 63.9329 57.0142 64.7607 58.34C64.9611 58.6649 65.1615 58.6825 65.4752 58.5771C66.2072 58.3313 67.0437 57.6464 67.584 56.8298ZM73.4388 73.8709C73.3081 74.547 73.038 74.7489 72.3409 74.7665C72.2184 74.7435 72.0959 74.7252 71.974 74.7071C71.7231 74.6696 71.4747 74.6326 71.2342 74.5557C70.4499 74.3187 70.1101 73.7655 70.2582 72.949C70.3105 72.6504 70.4238 72.3607 70.5545 72.0885C71.0251 71.1315 71.8006 70.4554 72.6894 69.911C72.9944 69.7266 73.3604 69.6125 73.7089 69.551C73.87 69.5198 74.0488 69.5641 74.2263 69.608C74.2985 69.6259 74.3704 69.6437 74.4409 69.6564C74.4262 69.7208 74.4149 69.7888 74.4035 69.857C74.3747 70.0306 74.3455 70.2064 74.2579 70.3325C73.7525 71.0612 73.6044 71.8778 73.5608 72.7382C73.5434 73.1158 73.5085 73.5021 73.4388 73.8709ZM71.8267 72.589C71.4433 72.589 71.1035 72.9314 71.1122 73.3177C71.1144 73.4173 71.1371 73.5119 71.176 73.5975C71.1377 73.5124 71.1153 73.4186 71.1132 73.3198C71.1132 72.9335 71.4443 72.5911 71.8277 72.5911C72.1108 72.5911 72.3576 72.7604 72.4697 73.0066C72.3581 72.7593 72.1107 72.589 71.8267 72.589ZM67.5053 44.861C67.8448 44.8893 68.1821 44.9173 68.5178 44.9452L68.5179 44.9452L68.5181 44.9452L68.5181 44.9452L68.5182 44.9452L68.5183 44.9452C69.8453 45.0554 71.1457 45.1633 72.4461 45.2824C72.8295 45.3175 72.9515 45.1683 72.9864 44.8083C73.0561 44.0356 72.7947 43.4298 72.1498 43.0083C71.0606 42.3059 69.1174 42.4288 68.124 43.2717C67.6186 43.6932 67.4007 44.2288 67.5053 44.861ZM66.7214 34.7549C67.767 35.3256 68.7604 35.9051 69.4575 36.8973C67.8542 37.8455 66.3031 38.7674 64.752 39.6981C64.4644 39.2416 64.4296 38.9343 64.6387 38.2933C65.0363 37.0588 65.789 36.0298 66.552 34.9867L66.5524 34.9862L66.553 34.9853C66.6091 34.9086 66.6653 34.8318 66.7214 34.7549ZM64.3512 52.9945C65.4381 53.3668 66.3115 54.0397 67.2018 54.7256L67.2018 54.7256C67.739 55.1395 68.2823 55.5581 68.8825 55.9183C68.9641 55.7888 69.0453 55.6604 69.1261 55.5328L69.1271 55.5311L69.1278 55.5301L69.1279 55.5299C69.4519 55.0179 69.7681 54.5182 70.0676 54.013C70.1111 53.9427 70.085 53.7408 70.0153 53.6881C68.8825 52.7925 67.6625 52.0725 66.1724 52.0023C65.4318 51.9847 64.7695 52.1779 64.3512 52.9945ZM72.6384 47.1647C72.621 47.884 72.6031 48.6207 72.1417 49.226C71.9606 49.166 71.7815 49.1053 71.6035 49.045C71.1309 48.8849 70.667 48.7278 70.1985 48.5938C69.3707 48.3743 68.5429 48.1724 67.7064 47.988C67.3927 47.9177 67.3229 47.7597 67.3665 47.4612C67.4798 46.6358 68.0462 46.1266 69.0047 46.0915C70.2334 46.0388 71.3662 46.4514 72.4729 46.9431C72.5513 46.9783 72.6384 47.0924 72.6384 47.1626L72.6384 47.1647ZM69.5606 73.8882C69.3745 74.1173 69.2081 74.3188 69.0529 74.5066L69.0524 74.5072C68.8807 74.715 68.7227 74.9062 68.5672 75.0999C68.5138 75.1665 68.4581 75.2316 68.4026 75.2966L68.4025 75.2967C68.268 75.4542 68.1343 75.6107 68.0356 75.7847C67.7132 76.3466 67.8701 76.9613 68.4626 77.2159C68.9332 77.4178 69.456 77.5495 69.9614 77.6022C71.3121 77.7515 72.6453 77.6198 73.9524 77.2247C73.8653 76.6101 73.5864 76.3291 72.9764 76.2676C72.672 76.2402 72.3641 76.2299 72.057 76.2197L72.0569 76.2196L72.0567 76.2196L72.0565 76.2196C71.8717 76.2134 71.6871 76.2073 71.5038 76.1974C70.3187 76.1271 70.127 75.9428 69.8917 74.7838C69.8508 74.5895 69.7707 74.3991 69.6856 74.1968C69.6438 74.0974 69.6008 73.9952 69.5606 73.8882ZM70.6596 52.4215C69.2654 51.6927 67.845 51.0606 66.2678 50.7445C66.4943 49.6206 67.235 49.1201 68.4027 49.2694C69.5791 49.4099 70.6247 49.9016 71.5833 50.5777C71.6791 50.6479 71.8011 50.8059 71.775 50.8762C71.5833 51.3679 71.3828 51.8684 71.1301 52.3337C71.0779 52.4215 70.7729 52.483 70.6596 52.4215ZM74.4855 72.0281C74.4855 72.9412 74.6337 73.0905 75.3308 72.9588C75.6183 72.9061 75.9233 72.7832 76.1586 72.6076C77.0648 71.9315 77.3175 70.2984 76.6901 69.394C76.542 69.1833 76.4113 69.0955 76.1673 69.2711C75.1565 70.0174 74.5291 70.9569 74.4855 72.0281Z" fill="#20113D"/>
<defs>
<filter id="filter0_d_38740_9077" x="7" y="11" width="112" height="112" filterUnits="userSpaceOnUse" color-interpolation-filters="sRGB">
<feFlood flood-opacity="0" result="BackgroundImageFix"/>
<feColorMatrix in="SourceAlpha" type="matrix" values="0 0 0 0 0 0 0 0 0 0 0 0 0 0 0 0 0 0 127 0" result="hardAlpha"/>
<feOffset dy="4"/>
<feGaussianBlur stdDeviation="2"/>
<feColorMatrix type="matrix" values="0 0 0 0 0 0 0 0 0 0 0 0 0 0 0 0 0 0 0.25 0"/>
<feBlend mode="normal" in2="BackgroundImageFix" result="effect1_dropShadow_38740_9077"/>
<feBlend mode="normal" in="SourceGraphic" in2="effect1_dropShadow_38740_9077" result="shape"/>
</filter>
</defs>
</svg>
