<svg width="120" height="120" viewBox="0 0 120 120" fill="none" xmlns="http://www.w3.org/2000/svg">
<circle cx="60" cy="60" r="58.5" stroke="white" stroke-width="3"/>
<g filter="url(#filter0_d_38735_9057)">
<circle cx="60" cy="60" r="52" fill="white"/>
</g>
<path fill-rule="evenodd" clip-rule="evenodd" d="M48.3146 66.7533C45.0305 67.7468 41.7208 67.594 38.3858 65.3776C38.1296 65.6998 37.8671 66.0242 37.602 66.3518C36.9448 67.164 36.2711 67.9965 35.6362 68.8678C35.1652 69.5429 34.7261 70.2434 34.2869 70.944L34.2869 70.944C33.8477 71.6446 33.4086 72.3452 32.9376 73.0203C31.8938 74.5233 31.5119 76.1538 31.6138 77.9625C31.741 80.2808 30.8245 81.4527 28.5587 81.8603C23.8998 82.701 19.7246 79.2363 19.6991 74.5233C19.6991 74.0631 19.6909 73.6029 19.6827 73.1443C19.6705 72.4606 19.6584 71.7805 19.6736 71.1096C19.7164 69.3106 20.497 67.7456 21.274 66.1876C21.4213 65.8924 21.5684 65.5974 21.7103 65.3012C22.0776 64.539 22.4484 63.7781 22.8192 63.017C24.1959 60.1911 25.5732 57.3642 26.7766 54.4741C28.5456 50.2384 31.2029 46.5954 33.8697 42.9395C34.4269 42.1757 34.9844 41.4113 35.5344 40.6409C35.5608 40.6079 35.5888 40.5749 35.6173 40.5415L35.6175 40.5413L35.6175 40.5413L35.6175 40.5412L35.6175 40.5412L35.6175 40.5412C35.6989 40.4456 35.7833 40.3464 35.8399 40.2333C38.8185 34.807 44.114 33.5332 49.5621 32.4632C50.9057 32.2038 52.2383 31.8788 53.5701 31.554C55.1153 31.1772 56.6593 30.8007 58.2181 30.5271C61.0694 30.0176 63.9972 29.61 66.8995 29.5081C70.3364 29.3807 73.2387 30.9856 75.81 33.202C71.9148 31.2149 67.7396 30.5271 63.4116 30.629C62.3169 30.6545 61.2222 30.7564 60.1275 30.8837C58.549 31.0621 57.8871 32.2339 57.4543 33.5841C56.3341 37.0233 56.5633 40.4116 57.7598 43.8253C58.0482 44.6455 58.228 45.5109 58.4071 46.373L58.4071 46.3731L58.4071 46.3731L58.4071 46.3731L58.4071 46.3732C58.5284 46.9571 58.6494 47.5394 58.8036 48.1052C59.0002 48.8102 59.1921 49.5175 59.3842 50.2252L59.3843 50.2258C60.0873 52.8167 60.7915 55.4121 61.7314 57.9133C62.1132 58.9578 63.3862 59.9768 64.4809 60.3844C68.7834 61.9384 73.1878 62.7791 77.7449 61.2251C83.4731 59.2635 86.4263 53.1494 84.2623 47.4683C83.5689 45.6686 82.7464 43.9243 81.9204 42.1725L81.9203 42.1724L81.9203 42.1724C81.7758 41.866 81.6313 41.5594 81.4873 41.2523C81.3554 40.9695 81.0842 40.7426 80.8179 40.5198L80.8179 40.5198C80.7243 40.4415 80.6314 40.3637 80.5453 40.2842C80.216 39.9716 79.8728 39.6675 79.5285 39.3624C78.8347 38.7475 78.1368 38.1291 77.5412 37.431C76.7011 36.4374 76.7265 35.1891 77.4648 34.1191C78.1776 33.0746 79.3233 32.8199 80.5198 33.0237C82.3783 33.3294 83.5749 34.4758 84.1859 36.1827C84.7714 37.8386 84.2114 39.2652 82.7602 40.5135C84.6696 42.093 85.3061 44.3603 85.8662 46.6021C86.0782 47.451 86.1922 48.3271 86.3064 49.2052V49.2053C86.4389 50.2247 86.5718 51.2468 86.8591 52.2322C87.3387 53.864 87.9141 55.4736 88.4902 57.0849C88.9845 58.4672 89.4791 59.8507 89.9141 61.2506C90.4789 63.0427 90.9991 64.8498 91.5188 66.6557L91.519 66.6564C91.9597 68.1874 92.4001 69.7176 92.8673 71.237C93.1277 72.0838 93.4609 72.9097 93.7937 73.7348L93.7938 73.735L93.7939 73.7352L93.794 73.7354L93.7941 73.7357C93.9819 74.2012 94.1695 74.6663 94.3439 75.1347C94.9019 76.6164 96.1653 77.2836 97.4175 77.9449C97.6509 78.0681 97.8838 78.1911 98.1118 78.3192C99.2829 78.9816 99.8939 79.8477 99.5884 81.2234C99.3083 82.5226 98.4682 83.3379 96.9152 83.2869C93.7329 83.1595 90.576 82.8538 87.4192 82.5227C86.8845 82.4717 86.3244 81.9112 85.9426 81.4527C83.804 78.8796 81.691 76.2811 79.6033 73.6826C78.1522 71.8739 77.0829 69.8868 76.5228 67.6195C76.2848 66.6865 75.7994 65.8 75.3197 64.9236C75.1837 64.6753 75.0482 64.4278 74.9189 64.1803C74.7916 63.9255 74.4352 63.6962 74.1552 63.6453L73.9541 63.6054C72.3412 63.2846 70.7368 62.9654 69.3435 64.3841C68.9888 64.7643 68.4073 64.968 67.8999 65.1457L67.8924 65.1483C67.0013 65.454 66.594 66.0145 66.9249 66.8807C68.0994 70.0316 68.0107 73.2509 67.9218 76.4775V76.4776C67.8777 78.0772 67.8336 79.6786 67.9433 81.2743C67.9885 81.8858 68.074 82.4972 68.1595 83.1086C68.2664 83.8729 68.3732 84.6371 68.4015 85.4014C68.427 85.9873 68.1724 86.828 67.7651 87.1337C64.3791 89.6813 60.5857 90.1144 56.6905 88.7132C54.7557 87.9999 53.4573 86.5987 53.1518 84.204C52.5662 79.2363 51.777 74.2941 50.7587 69.4028C50.392 67.5679 49.5094 65.8157 48.6496 64.1089L48.6496 64.1088L48.6495 64.1086L48.6495 64.1085C48.5543 63.9196 48.4594 63.7312 48.3656 63.5434C45.9215 58.6776 45.2341 53.6334 46.0997 48.2326C46.8126 43.7489 47.78 39.469 50.7587 35.9279C51.373 35.2046 52.1028 34.584 52.8297 33.9659L52.8298 33.9658L52.8299 33.9658L52.8299 33.9657C53.1271 33.713 53.4238 33.4607 53.7119 33.202C53.7554 33.1646 53.802 33.1288 53.8491 33.0926C53.9945 32.9808 54.1441 32.8657 54.221 32.6925C50.3004 32.7435 46.7617 33.8389 43.2738 35.4693C40.0065 36.9687 38.1341 39.6427 36.2383 42.3503L36.2382 42.3503C35.8149 42.9549 35.3903 43.5612 34.9488 44.1565C34.7706 44.4112 34.7706 44.8443 34.7961 45.201C35.1699 48.7673 36.5441 52.0162 37.9154 55.2585L38.0039 55.4676C38.2766 56.0863 38.4195 56.77 38.5624 57.4537C38.6196 57.7272 38.6767 58.0006 38.7422 58.2699C38.8949 58.9578 39.0477 59.6711 39.0986 60.3844C39.109 60.5294 39.1202 60.6754 39.1316 60.8219C39.2039 61.7568 39.2781 62.7169 39.1241 63.6198C38.8186 65.2248 38.9458 65.7088 40.6007 65.9636C41.1258 66.0161 41.6553 66.0686 42.1871 66.1214L42.1998 66.1227L42.2078 66.1235L42.2137 66.1241C44.2514 66.3263 46.3228 66.5318 48.3146 66.7533ZM60.5862 42.8348C59.1096 42.2234 58.4986 40.7712 58.2949 39.0644C58.0658 37.2047 59.7461 34.8864 61.7064 34.1986C63.2594 33.6636 65.4488 34.5297 66.3144 36.0583C66.8236 36.9754 67.0272 37.7142 65.9071 38.5039C64.6396 39.3917 63.4623 40.3955 62.192 41.4786C61.6761 41.9184 61.145 42.3713 60.5862 42.8348ZM65.4226 50.653C64.9643 52.6655 66.2627 54.2705 67.8412 54.1431C67.9841 53.6873 68.1207 53.2409 68.2555 52.8006C68.5049 51.9858 68.7478 51.192 69.0123 50.3982C69.0823 50.1997 69.179 50.0066 69.2755 49.8139L69.2755 49.8139L69.2756 49.8138C69.3896 49.5861 69.5034 49.359 69.5723 49.1244C69.776 48.3856 70.0051 47.4176 69.0632 47.1883C68.3758 47.0354 67.2811 47.2647 66.8483 47.7488C66.1609 48.513 65.6517 49.6085 65.4226 50.653ZM74.5103 47.8004C74.6239 47.6487 74.7286 47.4835 74.8316 47.3208C75.0747 46.9371 75.3086 46.5678 75.6304 46.4247C75.9614 46.2718 76.6742 46.5775 77.0307 46.8832C77.1092 46.9509 77.1881 47.0186 77.2672 47.0864L77.2672 47.0864C78.1107 47.8098 78.9713 48.5479 79.5765 49.4563C79.9075 49.9913 79.7802 50.9848 79.5511 51.6472C79.3729 52.1312 78.7109 52.6407 78.2018 52.7426C77.8708 52.7936 77.3362 52.1822 77.0052 51.7746C76.4451 51.0867 75.9614 50.3734 75.4777 49.6091C75.2312 49.2744 75.0456 48.891 74.8283 48.4419L74.8282 48.4419C74.7313 48.2416 74.628 48.0282 74.5103 47.8004ZM75.8455 56.9538L75.8601 56.9449C75.8529 56.9014 75.8436 56.8558 75.834 56.8088C75.8098 56.6905 75.7838 56.5629 75.7838 56.4353C75.648 56.4014 75.5122 56.3561 75.3764 56.3108C75.1049 56.2202 74.8333 56.1296 74.5618 56.1296C73.5179 56.1296 72.4741 56.1551 71.4558 56.2825C71.0485 56.3335 70.5647 56.6137 70.3865 56.9194C70.2847 57.0977 70.6157 57.6582 70.8957 57.9129C71.0444 58.0617 71.2626 58.1149 71.4844 58.169C71.6422 58.2075 71.8019 58.2464 71.9395 58.3205C72.2196 58.4734 72.7287 58.7791 72.7033 58.9065C72.6014 59.2631 72.3468 59.6198 72.0413 59.8745C71.8934 60.0061 71.6819 60.0527 71.4203 60.1104C71.2767 60.142 71.1181 60.177 70.9466 60.2312C71.9348 60.1664 72.8508 60.1015 73.7668 60.0367C74.2904 59.9996 74.8139 59.9626 75.351 59.9255C75.0504 59.7918 74.706 59.7513 74.3744 59.7123C73.6948 59.6323 73.0689 59.5587 72.9833 58.7027C74.0215 58.0692 74.9338 57.5113 75.8455 56.9538Z" fill="#20113D"/>
<defs>
<filter id="filter0_d_38735_9057" x="4" y="8" width="112" height="112" filterUnits="userSpaceOnUse" color-interpolation-filters="sRGB">
<feFlood flood-opacity="0" result="BackgroundImageFix"/>
<feColorMatrix in="SourceAlpha" type="matrix" values="0 0 0 0 0 0 0 0 0 0 0 0 0 0 0 0 0 0 127 0" result="hardAlpha"/>
<feOffset dy="4"/>
<feGaussianBlur stdDeviation="2"/>
<feColorMatrix type="matrix" values="0 0 0 0 0 0 0 0 0 0 0 0 0 0 0 0 0 0 0.25 0"/>
<feBlend mode="normal" in2="BackgroundImageFix" result="effect1_dropShadow_38735_9057"/>
<feBlend mode="normal" in="SourceGraphic" in2="effect1_dropShadow_38735_9057" result="shape"/>
</filter>
</defs>
</svg>
